<?xml version="1.0"?>
<svg xmlns="http://www.w3.org/2000/svg" viewBox="0 0 64 64" width="512" height="512"><g id="bedroom-bed-hotel-2" data-name="bedroom-bed-hotel"><path d="M61,41H57V39H55V36h5a.983.983,0,0,0,.81-.42,1,1,0,0,0,.14-.9l-3-9A1.014,1.014,0,0,0,57,25H51a1.014,1.014,0,0,0-.95.68l-3,9a1,1,0,0,0,.14.9A.983.983,0,0,0,48,36h5v3H51v2H47a1,1,0,0,0-1,1V61a1,1,0,0,0,1,1h3a1,1,0,0,0,1-1V59h6v2a1,1,0,0,0,1,1h3a1,1,0,0,0,1-1V42A1,1,0,0,0,61,41ZM49.39,34l2.33-7h4.56l2.33,7ZM49,60H48V59h1Zm11,0H59V59h1Zm0-3H48V51H60Zm0-8H48V43H60Z"/><path d="M42,42.56V34a3.009,3.009,0,0,0-3-3H7a3.009,3.009,0,0,0-3,3v8.56A3.98,3.98,0,0,0,2,46V61a1,1,0,0,0,1,1H7a1,1,0,0,0,1-1V58H38v3a1,1,0,0,0,1,1h4a1,1,0,0,0,1-1V46A3.98,3.98,0,0,0,42,42.56ZM6,34a1,1,0,0,1,1-1H39a1,1,0,0,1,1,1v8H36.65A3.446,3.446,0,0,0,37,40.5,3.5,3.5,0,0,0,33.5,37h-5A3.5,3.5,0,0,0,25,40.5a3.446,3.446,0,0,0,.35,1.5h-4.7A3.446,3.446,0,0,0,21,40.5,3.5,3.5,0,0,0,17.5,37h-5A3.5,3.5,0,0,0,9,40.5,3.446,3.446,0,0,0,9.35,42H6Zm29,6.5A1.5,1.5,0,0,1,33.5,42h-5a1.5,1.5,0,0,1,0-3h5A1.5,1.5,0,0,1,35,40.5Zm-16,0A1.5,1.5,0,0,1,17.5,42h-5a1.5,1.5,0,0,1,0-3h5A1.5,1.5,0,0,1,19,40.5ZM6,60H4V58H6Zm36,0H40V58h2Zm0-4H4V53H42Zm0-5H4V50H42Zm0-3H4V46a2.006,2.006,0,0,1,2-2H40a2.006,2.006,0,0,1,2,2Z"/><rect x="52" y="44" width="4" height="2"/><rect x="52" y="52" width="4" height="2"/><path d="M54,17a7,7,0,1,0-7-7A7.008,7.008,0,0,0,54,17ZM54,5a5,5,0,1,1-5,5A5.006,5.006,0,0,1,54,5Z"/><path d="M55,10V6H53V9H51v2h3A1,1,0,0,0,55,10Z"/><path d="M43,2H3A1,1,0,0,0,2,3V28a1,1,0,0,0,1,1H43a1,1,0,0,0,1-1V3A1,1,0,0,0,43,2ZM42,27H10.09l10.84-6.78,4.45,3.56,1.24-1.56-1.25-1.01,2.86-2.57,2.06,2.07a1.014,1.014,0,0,0,1.42,0l1.63-1.64,5.18.86L42,23.41ZM29.71,17.3l3.25-2.92,3.13,3.12-2.93-.49a1.011,1.011,0,0,0-.87.28L31,18.59ZM42,20.59l-8.29-8.3a1.007,1.007,0,0,0-1.38-.03l-8.55,7.69-2.16-1.73a.993.993,0,0,0-1.15-.07L6.31,27H4V7H42ZM42,5H4V4H42Z"/></g></svg>
