<svg id="Capa_1" enable-background="new 0 0 512.278 512.278" height="512" viewBox="0 0 512.278 512.278" width="512" xmlns="http://www.w3.org/2000/svg"><g><g><path d="m369.509 0h-226.74c-22.006 0-39.909 17.903-39.909 39.909v35.23c0 4.142 3.357 7.5 7.5 7.5s7.5-3.358 7.5-7.5v-35.23c0-13.735 11.174-24.909 24.909-24.909h226.74c13.735 0 24.909 11.174 24.909 24.909v149.91h-276.558v-79.68c0-4.142-3.357-7.5-7.5-7.5s-7.5 3.358-7.5 7.5v362.23c0 22.006 17.903 39.909 39.909 39.909h226.74c22.006 0 39.909-17.903 39.909-39.909v-432.46c0-22.006-17.903-39.909-39.909-39.909zm24.909 472.37c0 13.735-11.174 24.909-24.909 24.909h-226.74c-13.735 0-24.909-11.174-24.909-24.909v-267.551h276.559v267.551z"/><path d="m325.949 102.408c0-38.493-31.316-69.81-69.81-69.81s-69.81 31.316-69.81 69.81 31.316 69.81 69.81 69.81 69.81-31.317 69.81-69.81zm-124.619 0c0-30.222 24.588-54.81 54.81-54.81s54.81 24.587 54.81 54.81-24.588 54.81-54.81 54.81-54.81-24.588-54.81-54.81z"/><path d="m293.228 102.408c0-20.451-16.638-37.088-37.089-37.088s-37.089 16.638-37.089 37.088 16.638 37.088 37.089 37.088 37.089-16.637 37.089-37.088zm-59.178 0c0-12.18 9.909-22.088 22.089-22.088s22.089 9.909 22.089 22.088-9.909 22.088-22.089 22.088-22.089-9.908-22.089-22.088z"/><path d="m184.482 411.644h143.314c10.885 0 19.74-8.855 19.74-19.74v-148.732c0-10.885-8.855-19.74-19.74-19.74h-19.324c-4.143 0-7.5 3.358-7.5 7.5s3.357 7.5 7.5 7.5h19.324c2.614 0 4.74 2.126 4.74 4.74v148.731c0 2.614-2.126 4.74-4.74 4.74h-143.314c-2.614 0-4.74-2.126-4.74-4.74v-148.731c0-2.614 2.126-4.74 4.74-4.74h88.657c4.143 0 7.5-3.358 7.5-7.5s-3.357-7.5-7.5-7.5h-88.657c-10.885 0-19.74 8.855-19.74 19.74v148.731c0 10.885 8.855 19.741 19.74 19.741z"/><path d="m257.5 250.921c-13.234-.367-25.743 4.514-35.22 13.733-9.479 9.222-14.699 21.583-14.699 34.806v21.883l-5.804 16.419c-1.705 4.824-.96 10.198 1.994 14.375 2.954 4.178 7.772 6.672 12.89 6.672h8.04c3.132 14.48 16.036 25.363 31.438 25.363s28.306-10.884 31.438-25.363h8.04c5.117 0 9.936-2.494 12.89-6.672 2.954-4.177 3.699-9.551 1.994-14.375l-5.804-16.42v-21.029c.001-26.521-21.172-48.679-47.197-49.392zm-1.361 118.253c-7.051 0-13.123-4.271-15.763-10.363h31.525c-2.639 6.091-8.711 10.363-15.762 10.363zm40.121-25.696c-.235.333-.542.333-.643.333h-78.957c-.101 0-.407 0-.643-.333-.234-.332-.136-.61-.099-.715l6.232-17.633c.284-.803.429-1.648.429-2.5v-23.17c0-9.138 3.608-17.681 10.159-24.055 21.356-20.78 56.958-4.179 56.958 24.909v22.316c0 .852.145 1.697.429 2.5l6.232 17.633c.039.105.138.383-.097.715z"/><g><g><circle cx="184.635" cy="432.135" r="10"/></g><g><circle cx="220.387" cy="432.135" r="10"/></g><g><circle cx="256.139" cy="432.135" r="10"/></g><g><circle cx="291.891" cy="432.135" r="10"/></g><g><circle cx="327.643" cy="432.135" r="10"/></g><g><circle cx="184.635" cy="464.403" r="10"/></g><g><circle cx="220.387" cy="464.403" r="10"/></g><g><circle cx="256.139" cy="464.403" r="10"/></g><g><circle cx="291.891" cy="464.403" r="10"/></g><g><circle cx="327.643" cy="464.403" r="10"/></g></g></g></g></svg>